<mxfile host="app.diagrams.net" agent="Mozilla/5.0 (X11; Linux x86_64; rv:136.0) Gecko/20100101 Firefox/136.0" version="26.1.2">
  <diagram name="Page-1" id="rN2KOYrv98jf9-0r46Vi">
    <mxGraphModel dx="1061" dy="605" grid="1" gridSize="10" guides="1" tooltips="1" connect="1" arrows="1" fold="1" page="1" pageScale="1" pageWidth="850" pageHeight="1100" math="0" shadow="0">
      <root>
        <mxCell id="0" />
        <mxCell id="1" parent="0" />
        <mxCell id="F5lC8ROlCVbnqiS2axrL-276" value="Libro" style="rounded=0;whiteSpace=wrap;html=1;" parent="1" vertex="1">
          <mxGeometry x="970" y="555.4602540378444" width="160" height="60" as="geometry" />
        </mxCell>
        <mxCell id="7832xU1PNel_KDjzZkY2-46" style="edgeStyle=orthogonalEdgeStyle;rounded=0;orthogonalLoop=1;jettySize=auto;html=1;entryX=0;entryY=0.5;entryDx=0;entryDy=0;endArrow=none;startFill=0;" parent="1" source="F5lC8ROlCVbnqiS2axrL-278" target="7832xU1PNel_KDjzZkY2-44" edge="1">
          <mxGeometry relative="1" as="geometry" />
        </mxCell>
        <mxCell id="F5lC8ROlCVbnqiS2axrL-278" value="Cliente" style="rounded=0;whiteSpace=wrap;html=1;" parent="1" vertex="1">
          <mxGeometry x="955.5" y="1262.8002540378443" width="160" height="60" as="geometry" />
        </mxCell>
        <mxCell id="F5lC8ROlCVbnqiS2axrL-279" value="Copia" style="rounded=0;whiteSpace=wrap;html=1;" parent="1" vertex="1">
          <mxGeometry x="970" y="806.2602540378444" width="160" height="60" as="geometry" />
        </mxCell>
        <mxCell id="F5lC8ROlCVbnqiS2axrL-281" value="Copia_Venta" style="rounded=0;whiteSpace=wrap;html=1;" parent="1" vertex="1">
          <mxGeometry x="1070" y="979.0602540378443" width="160" height="60" as="geometry" />
        </mxCell>
        <mxCell id="F5lC8ROlCVbnqiS2axrL-282" value="Copia_Prestamo" style="rounded=0;whiteSpace=wrap;html=1;" parent="1" vertex="1">
          <mxGeometry x="862" y="979.0602540378443" width="160" height="60" as="geometry" />
        </mxCell>
        <mxCell id="F5lC8ROlCVbnqiS2axrL-284" value="Venta" style="rounded=0;whiteSpace=wrap;html=1;" parent="1" vertex="1">
          <mxGeometry x="1280" y="979.0602540378442" width="160" height="60" as="geometry" />
        </mxCell>
        <mxCell id="F5lC8ROlCVbnqiS2axrL-286" value="Prestamo" style="rounded=0;whiteSpace=wrap;html=1;" parent="1" vertex="1">
          <mxGeometry x="649" y="979.2602540378442" width="160" height="60" as="geometry" />
        </mxCell>
        <mxCell id="F5lC8ROlCVbnqiS2axrL-287" value="" style="group" parent="1" vertex="1" connectable="0">
          <mxGeometry x="976" y="527.4615242270663" width="8" height="28" as="geometry" />
        </mxCell>
        <mxCell id="F5lC8ROlCVbnqiS2axrL-288" value="" style="ellipse;whiteSpace=wrap;html=1;aspect=fixed;fillColor=light-dark(#FFFFFF,#FFFFFF);" parent="F5lC8ROlCVbnqiS2axrL-287" vertex="1">
          <mxGeometry width="8" height="8" as="geometry" />
        </mxCell>
        <mxCell id="F5lC8ROlCVbnqiS2axrL-289" style="edgeStyle=orthogonalEdgeStyle;rounded=0;orthogonalLoop=1;jettySize=auto;html=1;endArrow=none;startFill=0;" parent="F5lC8ROlCVbnqiS2axrL-287" edge="1">
          <mxGeometry relative="1" as="geometry">
            <mxPoint x="4" y="28" as="targetPoint" />
            <mxPoint x="4" y="8" as="sourcePoint" />
          </mxGeometry>
        </mxCell>
        <mxCell id="F5lC8ROlCVbnqiS2axrL-290" value="&lt;font style=&quot;font-size: 8px;&quot;&gt;isbn&lt;/font&gt;" style="text;html=1;align=center;verticalAlign=middle;resizable=0;points=[];autosize=1;strokeColor=none;fillColor=none;rotation=-60;" parent="1" vertex="1">
          <mxGeometry x="960" y="497.4615242270663" width="40" height="30" as="geometry" />
        </mxCell>
        <mxCell id="F5lC8ROlCVbnqiS2axrL-291" value="" style="group" parent="1" vertex="1" connectable="0">
          <mxGeometry x="996" y="527.4615242270663" width="8" height="28" as="geometry" />
        </mxCell>
        <mxCell id="F5lC8ROlCVbnqiS2axrL-292" value="" style="ellipse;whiteSpace=wrap;html=1;aspect=fixed;" parent="F5lC8ROlCVbnqiS2axrL-291" vertex="1">
          <mxGeometry width="8" height="8" as="geometry" />
        </mxCell>
        <mxCell id="F5lC8ROlCVbnqiS2axrL-293" style="edgeStyle=orthogonalEdgeStyle;rounded=0;orthogonalLoop=1;jettySize=auto;html=1;endArrow=none;startFill=0;" parent="F5lC8ROlCVbnqiS2axrL-291" edge="1">
          <mxGeometry relative="1" as="geometry">
            <mxPoint x="4" y="28" as="targetPoint" />
            <mxPoint x="4" y="8" as="sourcePoint" />
          </mxGeometry>
        </mxCell>
        <mxCell id="F5lC8ROlCVbnqiS2axrL-294" value="&lt;font style=&quot;font-size: 8px;&quot;&gt;titulo&lt;/font&gt;" style="text;html=1;align=center;verticalAlign=middle;resizable=0;points=[];autosize=1;strokeColor=none;fillColor=none;rotation=-60;" parent="1" vertex="1">
          <mxGeometry x="976" y="493.4615242270663" width="50" height="30" as="geometry" />
        </mxCell>
        <mxCell id="F5lC8ROlCVbnqiS2axrL-295" value="" style="group" parent="1" vertex="1" connectable="0">
          <mxGeometry x="1016" y="527.4615242270663" width="8" height="28" as="geometry" />
        </mxCell>
        <mxCell id="F5lC8ROlCVbnqiS2axrL-296" value="" style="ellipse;whiteSpace=wrap;html=1;aspect=fixed;" parent="F5lC8ROlCVbnqiS2axrL-295" vertex="1">
          <mxGeometry width="8" height="8" as="geometry" />
        </mxCell>
        <mxCell id="F5lC8ROlCVbnqiS2axrL-297" style="edgeStyle=orthogonalEdgeStyle;rounded=0;orthogonalLoop=1;jettySize=auto;html=1;endArrow=none;startFill=0;" parent="F5lC8ROlCVbnqiS2axrL-295" edge="1">
          <mxGeometry relative="1" as="geometry">
            <mxPoint x="4" y="28" as="targetPoint" />
            <mxPoint x="4" y="8" as="sourcePoint" />
          </mxGeometry>
        </mxCell>
        <mxCell id="F5lC8ROlCVbnqiS2axrL-298" value="&lt;font style=&quot;font-size: 8px;&quot;&gt;genero&lt;/font&gt;" style="text;html=1;align=center;verticalAlign=middle;resizable=0;points=[];autosize=1;strokeColor=none;fillColor=none;rotation=-60;" parent="1" vertex="1">
          <mxGeometry x="996" y="493.4615242270663" width="50" height="30" as="geometry" />
        </mxCell>
        <mxCell id="F5lC8ROlCVbnqiS2axrL-299" value="" style="group" parent="1" vertex="1" connectable="0">
          <mxGeometry x="1036" y="527.4615242270663" width="8" height="28" as="geometry" />
        </mxCell>
        <mxCell id="F5lC8ROlCVbnqiS2axrL-300" value="" style="ellipse;whiteSpace=wrap;html=1;aspect=fixed;" parent="F5lC8ROlCVbnqiS2axrL-299" vertex="1">
          <mxGeometry width="8" height="8" as="geometry" />
        </mxCell>
        <mxCell id="F5lC8ROlCVbnqiS2axrL-301" style="edgeStyle=orthogonalEdgeStyle;rounded=0;orthogonalLoop=1;jettySize=auto;html=1;endArrow=none;startFill=0;" parent="F5lC8ROlCVbnqiS2axrL-299" edge="1">
          <mxGeometry relative="1" as="geometry">
            <mxPoint x="4" y="28" as="targetPoint" />
            <mxPoint x="4" y="8" as="sourcePoint" />
          </mxGeometry>
        </mxCell>
        <mxCell id="F5lC8ROlCVbnqiS2axrL-302" value="&lt;font style=&quot;font-size: 8px;&quot;&gt;editorial&lt;/font&gt;" style="text;html=1;align=center;verticalAlign=middle;resizable=0;points=[];autosize=1;strokeColor=none;fillColor=none;rotation=-60;" parent="1" vertex="1">
          <mxGeometry x="1010" y="487.4615242270663" width="70" height="30" as="geometry" />
        </mxCell>
        <mxCell id="F5lC8ROlCVbnqiS2axrL-303" value="" style="group" parent="1" vertex="1" connectable="0">
          <mxGeometry x="1055" y="527.4615242270663" width="8" height="28" as="geometry" />
        </mxCell>
        <mxCell id="F5lC8ROlCVbnqiS2axrL-304" value="" style="ellipse;whiteSpace=wrap;html=1;aspect=fixed;" parent="F5lC8ROlCVbnqiS2axrL-303" vertex="1">
          <mxGeometry width="8" height="8" as="geometry" />
        </mxCell>
        <mxCell id="F5lC8ROlCVbnqiS2axrL-305" style="edgeStyle=orthogonalEdgeStyle;rounded=0;orthogonalLoop=1;jettySize=auto;html=1;endArrow=none;startFill=0;" parent="F5lC8ROlCVbnqiS2axrL-303" edge="1">
          <mxGeometry relative="1" as="geometry">
            <mxPoint x="4" y="28" as="targetPoint" />
            <mxPoint x="4" y="8" as="sourcePoint" />
          </mxGeometry>
        </mxCell>
        <mxCell id="F5lC8ROlCVbnqiS2axrL-306" value="&lt;font style=&quot;font-size: 8px;&quot;&gt;anio_edicion&lt;/font&gt;" style="text;html=1;align=center;verticalAlign=middle;resizable=0;points=[];autosize=1;strokeColor=none;fillColor=none;rotation=-60;" parent="1" vertex="1">
          <mxGeometry x="1029" y="480.4615242270663" width="80" height="30" as="geometry" />
        </mxCell>
        <mxCell id="F5lC8ROlCVbnqiS2axrL-307" value="" style="group" parent="1" vertex="1" connectable="0">
          <mxGeometry x="1076" y="527.4615242270663" width="8" height="28" as="geometry" />
        </mxCell>
        <mxCell id="F5lC8ROlCVbnqiS2axrL-308" value="" style="ellipse;whiteSpace=wrap;html=1;aspect=fixed;" parent="F5lC8ROlCVbnqiS2axrL-307" vertex="1">
          <mxGeometry width="8" height="8" as="geometry" />
        </mxCell>
        <mxCell id="F5lC8ROlCVbnqiS2axrL-309" style="edgeStyle=orthogonalEdgeStyle;rounded=0;orthogonalLoop=1;jettySize=auto;html=1;endArrow=none;startFill=0;" parent="F5lC8ROlCVbnqiS2axrL-307" edge="1">
          <mxGeometry relative="1" as="geometry">
            <mxPoint x="4" y="28" as="targetPoint" />
            <mxPoint x="4" y="8" as="sourcePoint" />
          </mxGeometry>
        </mxCell>
        <mxCell id="F5lC8ROlCVbnqiS2axrL-310" value="&lt;font style=&quot;font-size: 8px;&quot;&gt;prologo&lt;/font&gt;" style="text;html=1;align=center;verticalAlign=middle;resizable=0;points=[];autosize=1;strokeColor=none;fillColor=none;rotation=-60;" parent="1" vertex="1">
          <mxGeometry x="1052" y="490.4615242270663" width="60" height="30" as="geometry" />
        </mxCell>
        <mxCell id="F5lC8ROlCVbnqiS2axrL-311" value="" style="group" parent="1" vertex="1" connectable="0">
          <mxGeometry x="1096" y="527.4615242270663" width="8" height="28" as="geometry" />
        </mxCell>
        <mxCell id="F5lC8ROlCVbnqiS2axrL-312" value="" style="ellipse;whiteSpace=wrap;html=1;aspect=fixed;" parent="F5lC8ROlCVbnqiS2axrL-311" vertex="1">
          <mxGeometry width="8" height="8" as="geometry" />
        </mxCell>
        <mxCell id="F5lC8ROlCVbnqiS2axrL-313" style="edgeStyle=orthogonalEdgeStyle;rounded=0;orthogonalLoop=1;jettySize=auto;html=1;endArrow=none;startFill=0;" parent="F5lC8ROlCVbnqiS2axrL-311" edge="1">
          <mxGeometry relative="1" as="geometry">
            <mxPoint x="4" y="28" as="targetPoint" />
            <mxPoint x="4" y="8" as="sourcePoint" />
          </mxGeometry>
        </mxCell>
        <mxCell id="F5lC8ROlCVbnqiS2axrL-314" value="&lt;font style=&quot;font-size: 8px;&quot;&gt;agradecimientos(0,1)&lt;/font&gt;" style="text;html=1;align=center;verticalAlign=middle;resizable=0;points=[];autosize=1;strokeColor=none;fillColor=none;rotation=-60;" parent="1" vertex="1">
          <mxGeometry x="1060" y="464.4615242270663" width="120" height="30" as="geometry" />
        </mxCell>
        <mxCell id="F5lC8ROlCVbnqiS2axrL-315" value="Autor" style="rounded=0;whiteSpace=wrap;html=1;" parent="1" vertex="1">
          <mxGeometry x="1400" y="555.4602540378444" width="160" height="60" as="geometry" />
        </mxCell>
        <mxCell id="F5lC8ROlCVbnqiS2axrL-316" value="" style="group" parent="1" vertex="1" connectable="0">
          <mxGeometry x="1476" y="527.4615242270663" width="8" height="28" as="geometry" />
        </mxCell>
        <mxCell id="F5lC8ROlCVbnqiS2axrL-317" value="" style="ellipse;whiteSpace=wrap;html=1;aspect=fixed;" parent="F5lC8ROlCVbnqiS2axrL-316" vertex="1">
          <mxGeometry width="8" height="8" as="geometry" />
        </mxCell>
        <mxCell id="F5lC8ROlCVbnqiS2axrL-318" style="edgeStyle=orthogonalEdgeStyle;rounded=0;orthogonalLoop=1;jettySize=auto;html=1;endArrow=none;startFill=0;" parent="F5lC8ROlCVbnqiS2axrL-316" edge="1">
          <mxGeometry relative="1" as="geometry">
            <mxPoint x="4" y="28" as="targetPoint" />
            <mxPoint x="4" y="8" as="sourcePoint" />
          </mxGeometry>
        </mxCell>
        <mxCell id="F5lC8ROlCVbnqiS2axrL-319" value="&lt;font style=&quot;font-size: 8px;&quot;&gt;nombre_completo&lt;/font&gt;" style="text;html=1;align=center;verticalAlign=middle;resizable=0;points=[];autosize=1;strokeColor=none;fillColor=none;rotation=-60;" parent="1" vertex="1">
          <mxGeometry x="1446" y="475.4615242270663" width="100" height="30" as="geometry" />
        </mxCell>
        <mxCell id="F5lC8ROlCVbnqiS2axrL-320" value="" style="group" parent="1" vertex="1" connectable="0">
          <mxGeometry x="1496" y="527.4615242270663" width="8" height="28" as="geometry" />
        </mxCell>
        <mxCell id="F5lC8ROlCVbnqiS2axrL-321" value="" style="ellipse;whiteSpace=wrap;html=1;aspect=fixed;" parent="F5lC8ROlCVbnqiS2axrL-320" vertex="1">
          <mxGeometry width="8" height="8" as="geometry" />
        </mxCell>
        <mxCell id="F5lC8ROlCVbnqiS2axrL-322" style="edgeStyle=orthogonalEdgeStyle;rounded=0;orthogonalLoop=1;jettySize=auto;html=1;endArrow=none;startFill=0;" parent="F5lC8ROlCVbnqiS2axrL-320" edge="1">
          <mxGeometry relative="1" as="geometry">
            <mxPoint x="4" y="28" as="targetPoint" />
            <mxPoint x="4" y="8" as="sourcePoint" />
          </mxGeometry>
        </mxCell>
        <mxCell id="F5lC8ROlCVbnqiS2axrL-323" value="&lt;font style=&quot;font-size: 8px;&quot;&gt;nacionalidad&lt;/font&gt;" style="text;html=1;align=center;verticalAlign=middle;resizable=0;points=[];autosize=1;strokeColor=none;fillColor=none;rotation=-60;" parent="1" vertex="1">
          <mxGeometry x="1472" y="481.4615242270663" width="80" height="30" as="geometry" />
        </mxCell>
        <mxCell id="F5lC8ROlCVbnqiS2axrL-324" value="" style="group" parent="1" vertex="1" connectable="0">
          <mxGeometry x="1456" y="527.4615242270663" width="8" height="28" as="geometry" />
        </mxCell>
        <mxCell id="F5lC8ROlCVbnqiS2axrL-325" value="" style="ellipse;whiteSpace=wrap;html=1;aspect=fixed;fillColor=light-dark(#FFFFFF,#FFFFFF);" parent="F5lC8ROlCVbnqiS2axrL-324" vertex="1">
          <mxGeometry width="8" height="8" as="geometry" />
        </mxCell>
        <mxCell id="F5lC8ROlCVbnqiS2axrL-326" style="edgeStyle=orthogonalEdgeStyle;rounded=0;orthogonalLoop=1;jettySize=auto;html=1;endArrow=none;startFill=0;" parent="F5lC8ROlCVbnqiS2axrL-324" edge="1">
          <mxGeometry relative="1" as="geometry">
            <mxPoint x="4" y="28" as="targetPoint" />
            <mxPoint x="4" y="8" as="sourcePoint" />
          </mxGeometry>
        </mxCell>
        <mxCell id="F5lC8ROlCVbnqiS2axrL-327" value="&lt;font style=&quot;font-size: 8px;&quot;&gt;num_pasaporte&lt;/font&gt;" style="text;html=1;align=center;verticalAlign=middle;resizable=0;points=[];autosize=1;strokeColor=none;fillColor=none;rotation=-60;" parent="1" vertex="1">
          <mxGeometry x="1427" y="479.4615242270663" width="90" height="30" as="geometry" />
        </mxCell>
        <mxCell id="F5lC8ROlCVbnqiS2axrL-328" value="tiene" style="rhombus;whiteSpace=wrap;html=1;" parent="1" vertex="1">
          <mxGeometry x="1230" y="545.4602540378444" width="80" height="80" as="geometry" />
        </mxCell>
        <mxCell id="F5lC8ROlCVbnqiS2axrL-329" value="" style="endArrow=none;html=1;rounded=0;exitX=1;exitY=0.5;exitDx=0;exitDy=0;entryX=0;entryY=0.5;entryDx=0;entryDy=0;" parent="1" source="F5lC8ROlCVbnqiS2axrL-276" target="F5lC8ROlCVbnqiS2axrL-328" edge="1">
          <mxGeometry width="50" height="50" relative="1" as="geometry">
            <mxPoint x="1370" y="615.4602540378444" as="sourcePoint" />
            <mxPoint x="1420" y="565.4602540378444" as="targetPoint" />
          </mxGeometry>
        </mxCell>
        <mxCell id="F5lC8ROlCVbnqiS2axrL-330" value="" style="endArrow=none;html=1;rounded=0;exitX=1;exitY=0.5;exitDx=0;exitDy=0;entryX=0;entryY=0.5;entryDx=0;entryDy=0;" parent="1" source="F5lC8ROlCVbnqiS2axrL-328" target="F5lC8ROlCVbnqiS2axrL-315" edge="1">
          <mxGeometry width="50" height="50" relative="1" as="geometry">
            <mxPoint x="1370" y="615.4602540378444" as="sourcePoint" />
            <mxPoint x="1420" y="565.4602540378444" as="targetPoint" />
          </mxGeometry>
        </mxCell>
        <mxCell id="F5lC8ROlCVbnqiS2axrL-331" value="(1,n)" style="text;html=1;align=center;verticalAlign=middle;resizable=0;points=[];autosize=1;strokeColor=none;fillColor=none;" parent="1" vertex="1">
          <mxGeometry x="1155.5" y="556.0002540378443" width="60" height="30" as="geometry" />
        </mxCell>
        <mxCell id="F5lC8ROlCVbnqiS2axrL-332" value="(1,n)" style="text;html=1;align=center;verticalAlign=middle;resizable=0;points=[];autosize=1;strokeColor=none;fillColor=none;" parent="1" vertex="1">
          <mxGeometry x="1340" y="555.4602540378444" width="60" height="30" as="geometry" />
        </mxCell>
        <mxCell id="F5lC8ROlCVbnqiS2axrL-333" value="posee" style="rhombus;whiteSpace=wrap;html=1;" parent="1" vertex="1">
          <mxGeometry x="1010" y="665.4602540378444" width="80" height="80" as="geometry" />
        </mxCell>
        <mxCell id="F5lC8ROlCVbnqiS2axrL-334" value="" style="endArrow=none;html=1;rounded=0;exitX=0.5;exitY=0;exitDx=0;exitDy=0;entryX=0.5;entryY=1;entryDx=0;entryDy=0;" parent="1" source="F5lC8ROlCVbnqiS2axrL-333" target="F5lC8ROlCVbnqiS2axrL-276" edge="1">
          <mxGeometry width="50" height="50" relative="1" as="geometry">
            <mxPoint x="1110" y="655.4602540378444" as="sourcePoint" />
            <mxPoint x="1160" y="605.4602540378444" as="targetPoint" />
          </mxGeometry>
        </mxCell>
        <mxCell id="F5lC8ROlCVbnqiS2axrL-335" value="" style="endArrow=none;html=1;rounded=0;entryX=0.5;entryY=1;entryDx=0;entryDy=0;exitX=0.5;exitY=0;exitDx=0;exitDy=0;" parent="1" source="F5lC8ROlCVbnqiS2axrL-279" target="F5lC8ROlCVbnqiS2axrL-333" edge="1">
          <mxGeometry width="50" height="50" relative="1" as="geometry">
            <mxPoint x="1050" y="805.4602540378444" as="sourcePoint" />
            <mxPoint x="1190" y="795.4602540378444" as="targetPoint" />
          </mxGeometry>
        </mxCell>
        <mxCell id="F5lC8ROlCVbnqiS2axrL-336" value="(0,n)" style="text;html=1;align=center;verticalAlign=middle;resizable=0;points=[];autosize=1;strokeColor=none;fillColor=none;" parent="1" vertex="1">
          <mxGeometry x="1044" y="617.4602540378444" width="60" height="30" as="geometry" />
        </mxCell>
        <mxCell id="F5lC8ROlCVbnqiS2axrL-337" value="" style="group" parent="1" vertex="1" connectable="0">
          <mxGeometry x="982" y="778.2615242270663" width="8" height="28" as="geometry" />
        </mxCell>
        <mxCell id="F5lC8ROlCVbnqiS2axrL-338" value="" style="ellipse;whiteSpace=wrap;html=1;aspect=fixed;fillColor=light-dark(#FFFFFF,#FFFFFF);" parent="F5lC8ROlCVbnqiS2axrL-337" vertex="1">
          <mxGeometry width="8" height="8" as="geometry" />
        </mxCell>
        <mxCell id="F5lC8ROlCVbnqiS2axrL-339" style="edgeStyle=orthogonalEdgeStyle;rounded=0;orthogonalLoop=1;jettySize=auto;html=1;endArrow=none;startFill=0;" parent="F5lC8ROlCVbnqiS2axrL-337" edge="1">
          <mxGeometry relative="1" as="geometry">
            <mxPoint x="4" y="28" as="targetPoint" />
            <mxPoint x="4" y="8" as="sourcePoint" />
          </mxGeometry>
        </mxCell>
        <mxCell id="F5lC8ROlCVbnqiS2axrL-340" value="&lt;font style=&quot;font-size: 8px;&quot;&gt;numero&lt;/font&gt;" style="text;html=1;align=center;verticalAlign=middle;resizable=0;points=[];autosize=1;strokeColor=none;fillColor=none;rotation=-60;" parent="1" vertex="1">
          <mxGeometry x="965" y="746.4615242270663" width="50" height="30" as="geometry" />
        </mxCell>
        <mxCell id="F5lC8ROlCVbnqiS2axrL-341" value="" style="curved=1;endArrow=none;html=1;rounded=0;startFill=0;" parent="1" edge="1">
          <mxGeometry width="50" height="50" relative="1" as="geometry">
            <mxPoint x="1000" y="795.4602540378444" as="sourcePoint" />
            <mxPoint x="1050" y="645.4602540378444" as="targetPoint" />
            <Array as="points">
              <mxPoint x="970" y="795.4602540378444" />
              <mxPoint x="970" y="775.4602540378444" />
              <mxPoint x="970" y="725.4602540378444" />
              <mxPoint x="980" y="705.4602540378444" />
              <mxPoint x="1000" y="685.4602540378444" />
            </Array>
          </mxGeometry>
        </mxCell>
        <mxCell id="F5lC8ROlCVbnqiS2axrL-342" value="" style="group" parent="1" vertex="1" connectable="0">
          <mxGeometry x="1000" y="791.4615242270663" width="8" height="28" as="geometry" />
        </mxCell>
        <mxCell id="F5lC8ROlCVbnqiS2axrL-343" value="" style="ellipse;whiteSpace=wrap;html=1;aspect=fixed;fillColor=light-dark(#FFFFFF,#FFFFFF);" parent="F5lC8ROlCVbnqiS2axrL-342" vertex="1">
          <mxGeometry width="8" height="8" as="geometry" />
        </mxCell>
        <mxCell id="F5lC8ROlCVbnqiS2axrL-344" value="(1,1)" style="text;html=1;align=center;verticalAlign=middle;resizable=0;points=[];autosize=1;strokeColor=none;fillColor=none;" parent="1" vertex="1">
          <mxGeometry x="1046" y="775.4602540378444" width="60" height="30" as="geometry" />
        </mxCell>
        <mxCell id="F5lC8ROlCVbnqiS2axrL-345" value="" style="endArrow=none;startArrow=none;html=1;rounded=0;entryX=0.5;entryY=0;entryDx=0;entryDy=0;exitX=0.5;exitY=0;exitDx=0;exitDy=0;startFill=0;" parent="1" source="F5lC8ROlCVbnqiS2axrL-281" target="F5lC8ROlCVbnqiS2axrL-282" edge="1">
          <mxGeometry width="50" height="50" relative="1" as="geometry">
            <mxPoint x="940" y="935.4602540378444" as="sourcePoint" />
            <mxPoint x="990" y="885.4602540378444" as="targetPoint" />
            <Array as="points">
              <mxPoint x="1150" y="925" />
              <mxPoint x="1060" y="925.4602540378444" />
              <mxPoint x="942" y="925" />
            </Array>
          </mxGeometry>
        </mxCell>
        <mxCell id="F5lC8ROlCVbnqiS2axrL-346" value="" style="endArrow=classic;html=1;rounded=0;entryX=0.5;entryY=1;entryDx=0;entryDy=0;endFill=1;" parent="1" target="F5lC8ROlCVbnqiS2axrL-279" edge="1">
          <mxGeometry width="50" height="50" relative="1" as="geometry">
            <mxPoint x="1050" y="925.4602540378444" as="sourcePoint" />
            <mxPoint x="990" y="885.4602540378444" as="targetPoint" />
          </mxGeometry>
        </mxCell>
        <mxCell id="F5lC8ROlCVbnqiS2axrL-347" value="(T,E)" style="text;html=1;align=center;verticalAlign=middle;resizable=0;points=[];autosize=1;strokeColor=none;fillColor=none;" parent="1" vertex="1">
          <mxGeometry x="1044" y="875.4602540378444" width="60" height="30" as="geometry" />
        </mxCell>
        <mxCell id="F5lC8ROlCVbnqiS2axrL-348" value="" style="group" parent="1" vertex="1" connectable="0">
          <mxGeometry x="886" y="951.0615242270662" width="8" height="28" as="geometry" />
        </mxCell>
        <mxCell id="F5lC8ROlCVbnqiS2axrL-349" value="" style="ellipse;whiteSpace=wrap;html=1;aspect=fixed;" parent="F5lC8ROlCVbnqiS2axrL-348" vertex="1">
          <mxGeometry width="8" height="8" as="geometry" />
        </mxCell>
        <mxCell id="F5lC8ROlCVbnqiS2axrL-350" style="edgeStyle=orthogonalEdgeStyle;rounded=0;orthogonalLoop=1;jettySize=auto;html=1;endArrow=none;startFill=0;" parent="F5lC8ROlCVbnqiS2axrL-348" edge="1">
          <mxGeometry relative="1" as="geometry">
            <mxPoint x="4" y="28" as="targetPoint" />
            <mxPoint x="4" y="8" as="sourcePoint" />
          </mxGeometry>
        </mxCell>
        <mxCell id="F5lC8ROlCVbnqiS2axrL-351" value="&lt;font style=&quot;font-size: 8px;&quot;&gt;estado&lt;/font&gt;" style="text;html=1;align=center;verticalAlign=middle;resizable=0;points=[];autosize=1;strokeColor=none;fillColor=none;rotation=-60;" parent="1" vertex="1">
          <mxGeometry x="869" y="915.2615242270663" width="50" height="30" as="geometry" />
        </mxCell>
        <mxCell id="F5lC8ROlCVbnqiS2axrL-363" value="&lt;font style=&quot;font-size: 8px;&quot;&gt;precip_prestamo&lt;/font&gt;" style="text;html=1;align=center;verticalAlign=middle;resizable=0;points=[];autosize=1;strokeColor=none;fillColor=none;rotation=0;" parent="1" vertex="1">
          <mxGeometry x="850" y="543.0015242270663" width="100" height="30" as="geometry" />
        </mxCell>
        <mxCell id="F5lC8ROlCVbnqiS2axrL-367" value="&lt;font style=&quot;font-size: 8px;&quot;&gt;stock_venta&lt;/font&gt;" style="text;html=1;align=center;verticalAlign=middle;resizable=0;points=[];autosize=1;strokeColor=none;fillColor=none;rotation=0;" parent="1" vertex="1">
          <mxGeometry x="869" y="563.0015242270663" width="80" height="30" as="geometry" />
        </mxCell>
        <mxCell id="F5lC8ROlCVbnqiS2axrL-369" value="" style="group" parent="1" vertex="1" connectable="0">
          <mxGeometry x="976.5" y="1235.0015242270665" width="8" height="28" as="geometry" />
        </mxCell>
        <mxCell id="F5lC8ROlCVbnqiS2axrL-370" value="" style="ellipse;whiteSpace=wrap;html=1;aspect=fixed;fillColor=light-dark(#FFFFFF,#FFFFFF);" parent="F5lC8ROlCVbnqiS2axrL-369" vertex="1">
          <mxGeometry width="8" height="8" as="geometry" />
        </mxCell>
        <mxCell id="F5lC8ROlCVbnqiS2axrL-371" style="edgeStyle=orthogonalEdgeStyle;rounded=0;orthogonalLoop=1;jettySize=auto;html=1;endArrow=none;startFill=0;" parent="F5lC8ROlCVbnqiS2axrL-369" edge="1">
          <mxGeometry relative="1" as="geometry">
            <mxPoint x="4" y="28" as="targetPoint" />
            <mxPoint x="4" y="8" as="sourcePoint" />
          </mxGeometry>
        </mxCell>
        <mxCell id="F5lC8ROlCVbnqiS2axrL-372" value="&lt;font style=&quot;font-size: 8px;&quot;&gt;id_cliente&lt;/font&gt;" style="text;html=1;align=center;verticalAlign=middle;resizable=0;points=[];autosize=1;strokeColor=none;fillColor=none;rotation=-60;" parent="1" vertex="1">
          <mxGeometry x="954.5" y="1194.0015242270665" width="70" height="30" as="geometry" />
        </mxCell>
        <mxCell id="F5lC8ROlCVbnqiS2axrL-373" value="" style="group" parent="1" vertex="1" connectable="0">
          <mxGeometry x="994.5" y="1235.0015242270665" width="8" height="28" as="geometry" />
        </mxCell>
        <mxCell id="F5lC8ROlCVbnqiS2axrL-374" value="" style="ellipse;whiteSpace=wrap;html=1;aspect=fixed;fillColor=light-dark(#FFFFFF,#FFFFFF);" parent="F5lC8ROlCVbnqiS2axrL-373" vertex="1">
          <mxGeometry width="8" height="8" as="geometry" />
        </mxCell>
        <mxCell id="F5lC8ROlCVbnqiS2axrL-375" style="edgeStyle=orthogonalEdgeStyle;rounded=0;orthogonalLoop=1;jettySize=auto;html=1;endArrow=none;startFill=0;" parent="F5lC8ROlCVbnqiS2axrL-373" edge="1">
          <mxGeometry relative="1" as="geometry">
            <mxPoint x="4" y="28" as="targetPoint" />
            <mxPoint x="4" y="8" as="sourcePoint" />
          </mxGeometry>
        </mxCell>
        <mxCell id="F5lC8ROlCVbnqiS2axrL-376" value="&lt;font style=&quot;font-size: 8px;&quot;&gt;dni&lt;/font&gt;" style="text;html=1;align=center;verticalAlign=middle;resizable=0;points=[];autosize=1;strokeColor=none;fillColor=none;rotation=-60;" parent="1" vertex="1">
          <mxGeometry x="979" y="1207.0015242270665" width="40" height="30" as="geometry" />
        </mxCell>
        <mxCell id="F5lC8ROlCVbnqiS2axrL-377" value="" style="group" parent="1" vertex="1" connectable="0">
          <mxGeometry x="1014.5" y="1235.0015242270665" width="8" height="28" as="geometry" />
        </mxCell>
        <mxCell id="F5lC8ROlCVbnqiS2axrL-378" value="" style="ellipse;whiteSpace=wrap;html=1;aspect=fixed;" parent="F5lC8ROlCVbnqiS2axrL-377" vertex="1">
          <mxGeometry width="8" height="8" as="geometry" />
        </mxCell>
        <mxCell id="F5lC8ROlCVbnqiS2axrL-379" style="edgeStyle=orthogonalEdgeStyle;rounded=0;orthogonalLoop=1;jettySize=auto;html=1;endArrow=none;startFill=0;" parent="F5lC8ROlCVbnqiS2axrL-377" edge="1">
          <mxGeometry relative="1" as="geometry">
            <mxPoint x="4" y="28" as="targetPoint" />
            <mxPoint x="4" y="8" as="sourcePoint" />
          </mxGeometry>
        </mxCell>
        <mxCell id="F5lC8ROlCVbnqiS2axrL-380" value="&lt;font style=&quot;font-size: 8px;&quot;&gt;nombre&lt;/font&gt;" style="text;html=1;align=center;verticalAlign=middle;resizable=0;points=[];autosize=1;strokeColor=none;fillColor=none;rotation=-60;" parent="1" vertex="1">
          <mxGeometry x="996.5" y="1201.0015242270665" width="50" height="30" as="geometry" />
        </mxCell>
        <mxCell id="F5lC8ROlCVbnqiS2axrL-381" value="" style="group" parent="1" vertex="1" connectable="0">
          <mxGeometry x="1034.5" y="1235.0015242270665" width="8" height="28" as="geometry" />
        </mxCell>
        <mxCell id="F5lC8ROlCVbnqiS2axrL-382" value="" style="ellipse;whiteSpace=wrap;html=1;aspect=fixed;" parent="F5lC8ROlCVbnqiS2axrL-381" vertex="1">
          <mxGeometry width="8" height="8" as="geometry" />
        </mxCell>
        <mxCell id="F5lC8ROlCVbnqiS2axrL-383" style="edgeStyle=orthogonalEdgeStyle;rounded=0;orthogonalLoop=1;jettySize=auto;html=1;endArrow=none;startFill=0;" parent="F5lC8ROlCVbnqiS2axrL-381" edge="1">
          <mxGeometry relative="1" as="geometry">
            <mxPoint x="4" y="28" as="targetPoint" />
            <mxPoint x="4" y="8" as="sourcePoint" />
          </mxGeometry>
        </mxCell>
        <mxCell id="F5lC8ROlCVbnqiS2axrL-384" value="&lt;font style=&quot;font-size: 8px;&quot;&gt;telefono&lt;/font&gt;" style="text;html=1;align=center;verticalAlign=middle;resizable=0;points=[];autosize=1;strokeColor=none;fillColor=none;rotation=-60;" parent="1" vertex="1">
          <mxGeometry x="1012.5" y="1198.0015242270665" width="60" height="30" as="geometry" />
        </mxCell>
        <mxCell id="F5lC8ROlCVbnqiS2axrL-385" value="" style="endArrow=none;html=1;rounded=0;exitX=0.75;exitY=0;exitDx=0;exitDy=0;" parent="1" edge="1">
          <mxGeometry width="50" height="50" relative="1" as="geometry">
            <mxPoint x="1058.5" y="1262.8002540378443" as="sourcePoint" />
            <mxPoint x="1068.5" y="1243.0002540378446" as="targetPoint" />
          </mxGeometry>
        </mxCell>
        <mxCell id="F5lC8ROlCVbnqiS2axrL-386" value="&lt;font style=&quot;font-size: 10px;&quot;&gt;dirección&lt;/font&gt;" style="ellipse;whiteSpace=wrap;html=1;" parent="1" vertex="1">
          <mxGeometry x="1057.5" y="1223.0002540378446" width="76" height="24" as="geometry" />
        </mxCell>
        <mxCell id="F5lC8ROlCVbnqiS2axrL-387" value="" style="endArrow=none;html=1;rounded=0;exitX=0.75;exitY=0;exitDx=0;exitDy=0;" parent="1" edge="1">
          <mxGeometry width="50" height="50" relative="1" as="geometry">
            <mxPoint x="1088.5" y="1223.0002540378446" as="sourcePoint" />
            <mxPoint x="1101.5" y="1200.0002540378446" as="targetPoint" />
          </mxGeometry>
        </mxCell>
        <mxCell id="F5lC8ROlCVbnqiS2axrL-388" value="" style="endArrow=none;html=1;rounded=0;exitX=0.75;exitY=0;exitDx=0;exitDy=0;" parent="1" edge="1">
          <mxGeometry width="50" height="50" relative="1" as="geometry">
            <mxPoint x="1118.5" y="1226.0002540378446" as="sourcePoint" />
            <mxPoint x="1128.5" y="1213.0002540378446" as="targetPoint" />
          </mxGeometry>
        </mxCell>
        <mxCell id="F5lC8ROlCVbnqiS2axrL-389" value="" style="endArrow=none;html=1;rounded=0;exitX=1;exitY=0.5;exitDx=0;exitDy=0;" parent="1" source="F5lC8ROlCVbnqiS2axrL-386" edge="1">
          <mxGeometry width="50" height="50" relative="1" as="geometry">
            <mxPoint x="1133.5" y="1247.0002540378446" as="sourcePoint" />
            <mxPoint x="1148.5" y="1235.0002540378446" as="targetPoint" />
          </mxGeometry>
        </mxCell>
        <mxCell id="F5lC8ROlCVbnqiS2axrL-390" value="" style="endArrow=none;html=1;rounded=0;entryX=1;entryY=1;entryDx=0;entryDy=0;" parent="1" target="F5lC8ROlCVbnqiS2axrL-386" edge="1">
          <mxGeometry width="50" height="50" relative="1" as="geometry">
            <mxPoint x="1138.5" y="1253.0002540378446" as="sourcePoint" />
            <mxPoint x="1128.5" y="1233.0002540378446" as="targetPoint" />
          </mxGeometry>
        </mxCell>
        <mxCell id="F5lC8ROlCVbnqiS2axrL-391" value="" style="group" parent="1" vertex="1" connectable="0">
          <mxGeometry x="1099.5" y="1193.0015242270665" width="8" height="28" as="geometry" />
        </mxCell>
        <mxCell id="F5lC8ROlCVbnqiS2axrL-392" value="" style="ellipse;whiteSpace=wrap;html=1;aspect=fixed;" parent="F5lC8ROlCVbnqiS2axrL-391" vertex="1">
          <mxGeometry width="8" height="8" as="geometry" />
        </mxCell>
        <mxCell id="F5lC8ROlCVbnqiS2axrL-393" value="" style="group" parent="1" vertex="1" connectable="0">
          <mxGeometry x="1126.5" y="1206.0015242270665" width="8" height="28" as="geometry" />
        </mxCell>
        <mxCell id="F5lC8ROlCVbnqiS2axrL-394" value="" style="ellipse;whiteSpace=wrap;html=1;aspect=fixed;" parent="F5lC8ROlCVbnqiS2axrL-393" vertex="1">
          <mxGeometry width="8" height="8" as="geometry" />
        </mxCell>
        <mxCell id="F5lC8ROlCVbnqiS2axrL-395" value="" style="group" parent="1" vertex="1" connectable="0">
          <mxGeometry x="1147.5" y="1231.0015242270665" width="8" height="28" as="geometry" />
        </mxCell>
        <mxCell id="F5lC8ROlCVbnqiS2axrL-396" value="" style="ellipse;whiteSpace=wrap;html=1;aspect=fixed;" parent="F5lC8ROlCVbnqiS2axrL-395" vertex="1">
          <mxGeometry width="8" height="8" as="geometry" />
        </mxCell>
        <mxCell id="F5lC8ROlCVbnqiS2axrL-397" value="" style="group" parent="1" vertex="1" connectable="0">
          <mxGeometry x="1136.5" y="1250.0015242270665" width="8" height="28" as="geometry" />
        </mxCell>
        <mxCell id="F5lC8ROlCVbnqiS2axrL-398" value="" style="ellipse;whiteSpace=wrap;html=1;aspect=fixed;" parent="F5lC8ROlCVbnqiS2axrL-397" vertex="1">
          <mxGeometry width="8" height="8" as="geometry" />
        </mxCell>
        <mxCell id="F5lC8ROlCVbnqiS2axrL-399" value="&lt;font style=&quot;font-size: 8px;&quot;&gt;calle&lt;/font&gt;" style="text;html=1;align=center;verticalAlign=middle;resizable=0;points=[];autosize=1;strokeColor=none;fillColor=none;rotation=0;" parent="1" vertex="1">
          <mxGeometry x="1097.5" y="1179.0015242270665" width="50" height="30" as="geometry" />
        </mxCell>
        <mxCell id="F5lC8ROlCVbnqiS2axrL-400" value="&lt;font style=&quot;font-size: 8px;&quot;&gt;numero&lt;/font&gt;" style="text;html=1;align=center;verticalAlign=middle;resizable=0;points=[];autosize=1;strokeColor=none;fillColor=none;rotation=0;" parent="1" vertex="1">
          <mxGeometry x="1126.5" y="1192.0015242270665" width="50" height="30" as="geometry" />
        </mxCell>
        <mxCell id="F5lC8ROlCVbnqiS2axrL-401" value="&lt;font style=&quot;font-size: 8px;&quot;&gt;piso(0,1)&lt;/font&gt;" style="text;html=1;align=center;verticalAlign=middle;resizable=0;points=[];autosize=1;strokeColor=none;fillColor=none;rotation=0;" parent="1" vertex="1">
          <mxGeometry x="1145.5" y="1217.0015242270665" width="70" height="30" as="geometry" />
        </mxCell>
        <mxCell id="F5lC8ROlCVbnqiS2axrL-402" value="&lt;font style=&quot;font-size: 8px;&quot;&gt;dpto(0,1)&lt;/font&gt;" style="text;html=1;align=center;verticalAlign=middle;resizable=0;points=[];autosize=1;strokeColor=none;fillColor=none;rotation=0;" parent="1" vertex="1">
          <mxGeometry x="1135.5" y="1236.8015242270662" width="70" height="30" as="geometry" />
        </mxCell>
        <mxCell id="F5lC8ROlCVbnqiS2axrL-406" value="" style="group" parent="1" vertex="1" connectable="0">
          <mxGeometry x="705" y="951.2615242270662" width="8" height="28" as="geometry" />
        </mxCell>
        <mxCell id="F5lC8ROlCVbnqiS2axrL-407" value="" style="ellipse;whiteSpace=wrap;html=1;aspect=fixed;" parent="F5lC8ROlCVbnqiS2axrL-406" vertex="1">
          <mxGeometry width="8" height="8" as="geometry" />
        </mxCell>
        <mxCell id="F5lC8ROlCVbnqiS2axrL-408" style="edgeStyle=orthogonalEdgeStyle;rounded=0;orthogonalLoop=1;jettySize=auto;html=1;endArrow=none;startFill=0;" parent="F5lC8ROlCVbnqiS2axrL-406" edge="1">
          <mxGeometry relative="1" as="geometry">
            <mxPoint x="4" y="28" as="targetPoint" />
            <mxPoint x="4" y="8" as="sourcePoint" />
          </mxGeometry>
        </mxCell>
        <mxCell id="F5lC8ROlCVbnqiS2axrL-409" value="&lt;font style=&quot;font-size: 8px;&quot;&gt;fecha_devol(0,1)&lt;/font&gt;" style="text;html=1;align=center;verticalAlign=middle;resizable=0;points=[];autosize=1;strokeColor=none;fillColor=none;rotation=-60;" parent="1" vertex="1">
          <mxGeometry x="675" y="899.4615242270663" width="100" height="30" as="geometry" />
        </mxCell>
        <mxCell id="F5lC8ROlCVbnqiS2axrL-410" value="" style="group" parent="1" vertex="1" connectable="0">
          <mxGeometry x="684" y="951.0615242270661" width="8" height="28" as="geometry" />
        </mxCell>
        <mxCell id="F5lC8ROlCVbnqiS2axrL-411" value="" style="ellipse;whiteSpace=wrap;html=1;aspect=fixed;" parent="F5lC8ROlCVbnqiS2axrL-410" vertex="1">
          <mxGeometry width="8" height="8" as="geometry" />
        </mxCell>
        <mxCell id="F5lC8ROlCVbnqiS2axrL-412" style="edgeStyle=orthogonalEdgeStyle;rounded=0;orthogonalLoop=1;jettySize=auto;html=1;endArrow=none;startFill=0;" parent="F5lC8ROlCVbnqiS2axrL-410" edge="1">
          <mxGeometry relative="1" as="geometry">
            <mxPoint x="4" y="28" as="targetPoint" />
            <mxPoint x="4" y="8" as="sourcePoint" />
          </mxGeometry>
        </mxCell>
        <mxCell id="F5lC8ROlCVbnqiS2axrL-413" value="&lt;font style=&quot;font-size: 8px;&quot;&gt;fecha_prob&lt;/font&gt;" style="text;html=1;align=center;verticalAlign=middle;resizable=0;points=[];autosize=1;strokeColor=none;fillColor=none;rotation=-60;" parent="1" vertex="1">
          <mxGeometry x="661" y="910.4615242270662" width="70" height="30" as="geometry" />
        </mxCell>
        <mxCell id="F5lC8ROlCVbnqiS2axrL-414" value="" style="endArrow=none;html=1;rounded=0;exitX=0.125;exitY=-0.001;exitDx=0;exitDy=0;exitPerimeter=0;" parent="1" source="F5lC8ROlCVbnqiS2axrL-286" edge="1">
          <mxGeometry width="50" height="50" relative="1" as="geometry">
            <mxPoint x="689" y="959.4602540378443" as="sourcePoint" />
            <mxPoint x="649" y="949.4602540378443" as="targetPoint" />
          </mxGeometry>
        </mxCell>
        <mxCell id="F5lC8ROlCVbnqiS2axrL-415" value="&lt;font style=&quot;font-size: 10px;&quot;&gt;comienzo&lt;/font&gt;" style="ellipse;whiteSpace=wrap;html=1;" parent="1" vertex="1">
          <mxGeometry x="592" y="926.4602540378443" width="76" height="24" as="geometry" />
        </mxCell>
        <mxCell id="F5lC8ROlCVbnqiS2axrL-416" value="" style="endArrow=none;html=1;rounded=0;exitX=0.75;exitY=0;exitDx=0;exitDy=0;" parent="1" edge="1">
          <mxGeometry width="50" height="50" relative="1" as="geometry">
            <mxPoint x="623" y="926.4602540378443" as="sourcePoint" />
            <mxPoint x="609" y="899.4602540378444" as="targetPoint" />
          </mxGeometry>
        </mxCell>
        <mxCell id="F5lC8ROlCVbnqiS2axrL-417" value="" style="endArrow=none;html=1;rounded=0;" parent="1" edge="1">
          <mxGeometry width="50" height="50" relative="1" as="geometry">
            <mxPoint x="637" y="926.4602540378443" as="sourcePoint" />
            <mxPoint x="636" y="916.4602540378443" as="targetPoint" />
          </mxGeometry>
        </mxCell>
        <mxCell id="F5lC8ROlCVbnqiS2axrL-418" value="" style="group" parent="1" vertex="1" connectable="0">
          <mxGeometry x="605" y="892.4615242270664" width="8" height="28" as="geometry" />
        </mxCell>
        <mxCell id="F5lC8ROlCVbnqiS2axrL-419" value="" style="ellipse;whiteSpace=wrap;html=1;aspect=fixed;" parent="F5lC8ROlCVbnqiS2axrL-418" vertex="1">
          <mxGeometry width="8" height="8" as="geometry" />
        </mxCell>
        <mxCell id="F5lC8ROlCVbnqiS2axrL-420" value="" style="group" parent="1" vertex="1" connectable="0">
          <mxGeometry x="631" y="908.4615242270662" width="8" height="28" as="geometry" />
        </mxCell>
        <mxCell id="F5lC8ROlCVbnqiS2axrL-421" value="" style="ellipse;whiteSpace=wrap;html=1;aspect=fixed;" parent="F5lC8ROlCVbnqiS2axrL-420" vertex="1">
          <mxGeometry width="8" height="8" as="geometry" />
        </mxCell>
        <mxCell id="F5lC8ROlCVbnqiS2axrL-422" value="&lt;font style=&quot;font-size: 8px;&quot;&gt;fecha&lt;/font&gt;" style="text;html=1;align=center;verticalAlign=middle;resizable=0;points=[];autosize=1;strokeColor=none;fillColor=none;rotation=0;" parent="1" vertex="1">
          <mxGeometry x="602" y="878.4615242270664" width="50" height="30" as="geometry" />
        </mxCell>
        <mxCell id="F5lC8ROlCVbnqiS2axrL-423" value="&lt;font style=&quot;font-size: 8px;&quot;&gt;hora&lt;/font&gt;" style="text;html=1;align=center;verticalAlign=middle;resizable=0;points=[];autosize=1;strokeColor=none;fillColor=none;rotation=0;" parent="1" vertex="1">
          <mxGeometry x="631" y="895.4615242270664" width="40" height="30" as="geometry" />
        </mxCell>
        <mxCell id="F5lC8ROlCVbnqiS2axrL-424" value="" style="group" parent="1" vertex="1" connectable="0">
          <mxGeometry x="1397" y="951.8615242270661" width="8" height="28" as="geometry" />
        </mxCell>
        <mxCell id="F5lC8ROlCVbnqiS2axrL-425" value="" style="ellipse;whiteSpace=wrap;html=1;aspect=fixed;" parent="F5lC8ROlCVbnqiS2axrL-424" vertex="1">
          <mxGeometry width="8" height="8" as="geometry" />
        </mxCell>
        <mxCell id="F5lC8ROlCVbnqiS2axrL-426" style="edgeStyle=orthogonalEdgeStyle;rounded=0;orthogonalLoop=1;jettySize=auto;html=1;endArrow=none;startFill=0;" parent="F5lC8ROlCVbnqiS2axrL-424" edge="1">
          <mxGeometry relative="1" as="geometry">
            <mxPoint x="4" y="28" as="targetPoint" />
            <mxPoint x="4" y="8" as="sourcePoint" />
          </mxGeometry>
        </mxCell>
        <mxCell id="F5lC8ROlCVbnqiS2axrL-427" value="&lt;font style=&quot;font-size: 8px;&quot;&gt;fecha&lt;/font&gt;" style="text;html=1;align=center;verticalAlign=middle;resizable=0;points=[];autosize=1;strokeColor=none;fillColor=none;rotation=-60;" parent="1" vertex="1">
          <mxGeometry x="1358" y="921.0615242270661" width="50" height="30" as="geometry" />
        </mxCell>
        <mxCell id="F5lC8ROlCVbnqiS2axrL-428" value="" style="group" parent="1" vertex="1" connectable="0">
          <mxGeometry x="1376" y="951.661524227066" width="8" height="28" as="geometry" />
        </mxCell>
        <mxCell id="F5lC8ROlCVbnqiS2axrL-429" value="" style="ellipse;whiteSpace=wrap;html=1;aspect=fixed;" parent="F5lC8ROlCVbnqiS2axrL-428" vertex="1">
          <mxGeometry width="8" height="8" as="geometry" />
        </mxCell>
        <mxCell id="F5lC8ROlCVbnqiS2axrL-430" style="edgeStyle=orthogonalEdgeStyle;rounded=0;orthogonalLoop=1;jettySize=auto;html=1;endArrow=none;startFill=0;" parent="F5lC8ROlCVbnqiS2axrL-428" edge="1">
          <mxGeometry relative="1" as="geometry">
            <mxPoint x="4" y="28" as="targetPoint" />
            <mxPoint x="4" y="8" as="sourcePoint" />
          </mxGeometry>
        </mxCell>
        <mxCell id="F5lC8ROlCVbnqiS2axrL-431" value="&lt;font style=&quot;font-size: 8px;&quot;&gt;hora&lt;/font&gt;" style="text;html=1;align=center;verticalAlign=middle;resizable=0;points=[];autosize=1;strokeColor=none;fillColor=none;rotation=-60;" parent="1" vertex="1">
          <mxGeometry x="1383" y="922.0615242270661" width="40" height="30" as="geometry" />
        </mxCell>
        <mxCell id="F5lC8ROlCVbnqiS2axrL-432" value="" style="group" parent="1" vertex="1" connectable="0">
          <mxGeometry x="1416" y="951.661524227066" width="8" height="28" as="geometry" />
        </mxCell>
        <mxCell id="F5lC8ROlCVbnqiS2axrL-433" value="" style="ellipse;whiteSpace=wrap;html=1;aspect=fixed;fillColor=light-dark(#FFFFFF,#FFFFFF);" parent="F5lC8ROlCVbnqiS2axrL-432" vertex="1">
          <mxGeometry width="8" height="8" as="geometry" />
        </mxCell>
        <mxCell id="F5lC8ROlCVbnqiS2axrL-434" style="edgeStyle=orthogonalEdgeStyle;rounded=0;orthogonalLoop=1;jettySize=auto;html=1;endArrow=none;startFill=0;" parent="F5lC8ROlCVbnqiS2axrL-432" edge="1">
          <mxGeometry relative="1" as="geometry">
            <mxPoint x="4" y="28" as="targetPoint" />
            <mxPoint x="4" y="8" as="sourcePoint" />
          </mxGeometry>
        </mxCell>
        <mxCell id="F5lC8ROlCVbnqiS2axrL-435" value="&lt;font style=&quot;font-size: 8px;&quot;&gt;ticket&lt;/font&gt;" style="text;html=1;align=center;verticalAlign=middle;resizable=0;points=[];autosize=1;strokeColor=none;fillColor=none;rotation=-60;" parent="1" vertex="1">
          <mxGeometry x="1399" y="918.001524227066" width="50" height="30" as="geometry" />
        </mxCell>
        <mxCell id="F5lC8ROlCVbnqiS2axrL-437" value="tiene" style="rhombus;whiteSpace=wrap;html=1;" parent="1" vertex="1">
          <mxGeometry x="1211" y="1080.0002540378443" width="80" height="80" as="geometry" />
        </mxCell>
        <mxCell id="F5lC8ROlCVbnqiS2axrL-441" style="edgeStyle=orthogonalEdgeStyle;rounded=0;orthogonalLoop=1;jettySize=auto;html=1;endArrow=none;startFill=0;entryX=0.5;entryY=1;entryDx=0;entryDy=0;exitX=0;exitY=0.5;exitDx=0;exitDy=0;" parent="1" source="F5lC8ROlCVbnqiS2axrL-442" target="F5lC8ROlCVbnqiS2axrL-286" edge="1">
          <mxGeometry relative="1" as="geometry">
            <mxPoint x="427" y="1024.4602540378444" as="targetPoint" />
          </mxGeometry>
        </mxCell>
        <mxCell id="F5lC8ROlCVbnqiS2axrL-442" value="tiene" style="rhombus;whiteSpace=wrap;html=1;" parent="1" vertex="1">
          <mxGeometry x="794" y="1080.0002540378443" width="80" height="80" as="geometry" />
        </mxCell>
        <mxCell id="F5lC8ROlCVbnqiS2axrL-443" value="(1,n)" style="text;html=1;align=center;verticalAlign=middle;resizable=0;points=[];autosize=1;strokeColor=none;fillColor=none;" parent="1" vertex="1">
          <mxGeometry x="730" y="1090.0002540378443" width="60" height="30" as="geometry" />
        </mxCell>
        <mxCell id="F5lC8ROlCVbnqiS2axrL-444" value="(1,n)" style="text;html=1;align=center;verticalAlign=middle;resizable=0;points=[];autosize=1;strokeColor=none;fillColor=none;" parent="1" vertex="1">
          <mxGeometry x="1297" y="1090.0002540378443" width="60" height="30" as="geometry" />
        </mxCell>
        <mxCell id="7832xU1PNel_KDjzZkY2-37" style="edgeStyle=orthogonalEdgeStyle;rounded=0;orthogonalLoop=1;jettySize=auto;html=1;endArrow=none;startFill=0;entryX=0.5;entryY=1;entryDx=0;entryDy=0;exitX=1;exitY=0.5;exitDx=0;exitDy=0;" parent="1" source="F5lC8ROlCVbnqiS2axrL-442" target="F5lC8ROlCVbnqiS2axrL-282" edge="1">
          <mxGeometry relative="1" as="geometry">
            <mxPoint x="739" y="1049" as="targetPoint" />
            <mxPoint x="804" y="1130" as="sourcePoint" />
          </mxGeometry>
        </mxCell>
        <mxCell id="7832xU1PNel_KDjzZkY2-38" style="edgeStyle=orthogonalEdgeStyle;rounded=0;orthogonalLoop=1;jettySize=auto;html=1;endArrow=none;startFill=0;entryX=0.5;entryY=1;entryDx=0;entryDy=0;exitX=0;exitY=0.5;exitDx=0;exitDy=0;" parent="1" source="F5lC8ROlCVbnqiS2axrL-437" target="F5lC8ROlCVbnqiS2axrL-281" edge="1">
          <mxGeometry relative="1" as="geometry">
            <mxPoint x="952" y="1048" as="targetPoint" />
            <mxPoint x="884" y="1130" as="sourcePoint" />
          </mxGeometry>
        </mxCell>
        <mxCell id="7832xU1PNel_KDjzZkY2-39" style="edgeStyle=orthogonalEdgeStyle;rounded=0;orthogonalLoop=1;jettySize=auto;html=1;endArrow=none;startFill=0;entryX=0.5;entryY=1;entryDx=0;entryDy=0;exitX=1;exitY=0.5;exitDx=0;exitDy=0;" parent="1" source="F5lC8ROlCVbnqiS2axrL-437" target="F5lC8ROlCVbnqiS2axrL-284" edge="1">
          <mxGeometry relative="1" as="geometry">
            <mxPoint x="1160" y="1048" as="targetPoint" />
            <mxPoint x="1221" y="1130" as="sourcePoint" />
          </mxGeometry>
        </mxCell>
        <mxCell id="7832xU1PNel_KDjzZkY2-40" value="(0,n)" style="text;html=1;align=center;verticalAlign=middle;resizable=0;points=[];autosize=1;strokeColor=none;fillColor=none;" parent="1" vertex="1">
          <mxGeometry x="1152" y="1090.0002540378443" width="60" height="30" as="geometry" />
        </mxCell>
        <mxCell id="7832xU1PNel_KDjzZkY2-41" value="(0,n)" style="text;html=1;align=center;verticalAlign=middle;resizable=0;points=[];autosize=1;strokeColor=none;fillColor=none;" parent="1" vertex="1">
          <mxGeometry x="885" y="1090.0002540378443" width="60" height="30" as="geometry" />
        </mxCell>
        <mxCell id="7832xU1PNel_KDjzZkY2-45" style="edgeStyle=orthogonalEdgeStyle;rounded=0;orthogonalLoop=1;jettySize=auto;html=1;entryX=0;entryY=0.5;entryDx=0;entryDy=0;endArrow=none;startFill=0;" parent="1" source="7832xU1PNel_KDjzZkY2-43" target="F5lC8ROlCVbnqiS2axrL-278" edge="1">
          <mxGeometry relative="1" as="geometry" />
        </mxCell>
        <mxCell id="7832xU1PNel_KDjzZkY2-43" value="tiene" style="rhombus;whiteSpace=wrap;html=1;" parent="1" vertex="1">
          <mxGeometry x="794" y="1252.8002540378443" width="80" height="80" as="geometry" />
        </mxCell>
        <mxCell id="7832xU1PNel_KDjzZkY2-47" style="edgeStyle=orthogonalEdgeStyle;rounded=0;orthogonalLoop=1;jettySize=auto;html=1;entryX=0.75;entryY=1;entryDx=0;entryDy=0;exitX=1;exitY=0.5;exitDx=0;exitDy=0;endArrow=none;startFill=0;" parent="1" source="7832xU1PNel_KDjzZkY2-44" target="F5lC8ROlCVbnqiS2axrL-284" edge="1">
          <mxGeometry relative="1" as="geometry" />
        </mxCell>
        <mxCell id="7832xU1PNel_KDjzZkY2-44" value="tiene" style="rhombus;whiteSpace=wrap;html=1;" parent="1" vertex="1">
          <mxGeometry x="1211" y="1252.8002540378443" width="80" height="80" as="geometry" />
        </mxCell>
        <mxCell id="7832xU1PNel_KDjzZkY2-48" style="edgeStyle=orthogonalEdgeStyle;rounded=0;orthogonalLoop=1;jettySize=auto;html=1;entryX=0.188;entryY=1.012;entryDx=0;entryDy=0;entryPerimeter=0;exitX=0;exitY=0.5;exitDx=0;exitDy=0;endArrow=none;startFill=0;" parent="1" source="7832xU1PNel_KDjzZkY2-43" target="F5lC8ROlCVbnqiS2axrL-286" edge="1">
          <mxGeometry relative="1" as="geometry" />
        </mxCell>
        <mxCell id="J5Ex0tkJPNTa1uqSkUcM-1" value="" style="curved=1;endArrow=none;html=1;rounded=0;startFill=0;" parent="1" edge="1">
          <mxGeometry width="50" height="50" relative="1" as="geometry">
            <mxPoint x="679.1" y="1178" as="sourcePoint" />
            <mxPoint x="724" y="969" as="targetPoint" />
            <Array as="points">
              <mxPoint x="642" y="1079" />
              <mxPoint x="620" y="980" />
              <mxPoint x="640" y="970" />
            </Array>
          </mxGeometry>
        </mxCell>
        <mxCell id="J5Ex0tkJPNTa1uqSkUcM-2" value="" style="ellipse;whiteSpace=wrap;html=1;aspect=fixed;fillColor=light-dark(#FFFFFF,#FFFFFF);" parent="1" vertex="1">
          <mxGeometry x="722" y="965.001524227066" width="8" height="8" as="geometry" />
        </mxCell>
        <mxCell id="LuJj2Wv7cUH8_u7BbWKL-1" value="(0,n)" style="text;html=1;align=center;verticalAlign=middle;resizable=0;points=[];autosize=1;strokeColor=none;fillColor=none;" parent="1" vertex="1">
          <mxGeometry x="900" y="1263.0002540378443" width="60" height="30" as="geometry" />
        </mxCell>
        <mxCell id="LuJj2Wv7cUH8_u7BbWKL-2" value="(1,1)" style="text;html=1;align=center;verticalAlign=middle;resizable=0;points=[];autosize=1;strokeColor=none;fillColor=none;" parent="1" vertex="1">
          <mxGeometry x="680" y="1263.0002540378443" width="60" height="30" as="geometry" />
        </mxCell>
        <mxCell id="LuJj2Wv7cUH8_u7BbWKL-3" value="(0,n)" style="text;html=1;align=center;verticalAlign=middle;resizable=0;points=[];autosize=1;strokeColor=none;fillColor=none;" parent="1" vertex="1">
          <mxGeometry x="1116" y="1264.0002540378443" width="60" height="30" as="geometry" />
        </mxCell>
        <mxCell id="LuJj2Wv7cUH8_u7BbWKL-4" value="(1,1)" style="text;html=1;align=center;verticalAlign=middle;resizable=0;points=[];autosize=1;strokeColor=none;fillColor=none;" parent="1" vertex="1">
          <mxGeometry x="1340" y="1264.0002540378443" width="60" height="30" as="geometry" />
        </mxCell>
        <mxCell id="B2ohN6zCcqUy4PUC5bah-1" value="" style="group;rotation=-90;" vertex="1" connectable="0" parent="1">
          <mxGeometry x="952" y="545.4615242270663" width="8" height="28" as="geometry" />
        </mxCell>
        <mxCell id="B2ohN6zCcqUy4PUC5bah-2" value="" style="ellipse;whiteSpace=wrap;html=1;aspect=fixed;rotation=-90;" vertex="1" parent="B2ohN6zCcqUy4PUC5bah-1">
          <mxGeometry x="-10" y="10" width="8" height="8" as="geometry" />
        </mxCell>
        <mxCell id="B2ohN6zCcqUy4PUC5bah-4" value="" style="group;rotation=-90;" vertex="1" connectable="0" parent="1">
          <mxGeometry x="952" y="566.0015242270663" width="8" height="28" as="geometry" />
        </mxCell>
        <mxCell id="B2ohN6zCcqUy4PUC5bah-5" value="" style="ellipse;whiteSpace=wrap;html=1;aspect=fixed;rotation=-90;" vertex="1" parent="B2ohN6zCcqUy4PUC5bah-4">
          <mxGeometry x="-10" y="10" width="8" height="8" as="geometry" />
        </mxCell>
        <mxCell id="B2ohN6zCcqUy4PUC5bah-6" style="edgeStyle=orthogonalEdgeStyle;rounded=0;orthogonalLoop=1;jettySize=auto;html=1;endArrow=none;startFill=0;" edge="1" parent="B2ohN6zCcqUy4PUC5bah-4">
          <mxGeometry relative="1" as="geometry">
            <mxPoint x="18" y="14" as="targetPoint" />
            <mxPoint x="-2" y="14" as="sourcePoint" />
          </mxGeometry>
        </mxCell>
        <mxCell id="B2ohN6zCcqUy4PUC5bah-3" style="edgeStyle=orthogonalEdgeStyle;rounded=0;orthogonalLoop=1;jettySize=auto;html=1;endArrow=none;startFill=0;" edge="1" parent="1">
          <mxGeometry relative="1" as="geometry">
            <mxPoint x="970" y="560.0015242270663" as="targetPoint" />
            <mxPoint x="950" y="560.0015242270663" as="sourcePoint" />
          </mxGeometry>
        </mxCell>
        <mxCell id="B2ohN6zCcqUy4PUC5bah-7" value="" style="group;rotation=-90;" vertex="1" connectable="0" parent="1">
          <mxGeometry x="952" y="586.0015242270663" width="8" height="28" as="geometry" />
        </mxCell>
        <mxCell id="B2ohN6zCcqUy4PUC5bah-8" value="" style="ellipse;whiteSpace=wrap;html=1;aspect=fixed;rotation=-90;" vertex="1" parent="B2ohN6zCcqUy4PUC5bah-7">
          <mxGeometry x="-10" y="10" width="8" height="8" as="geometry" />
        </mxCell>
        <mxCell id="B2ohN6zCcqUy4PUC5bah-9" style="edgeStyle=orthogonalEdgeStyle;rounded=0;orthogonalLoop=1;jettySize=auto;html=1;endArrow=none;startFill=0;" edge="1" parent="B2ohN6zCcqUy4PUC5bah-7">
          <mxGeometry relative="1" as="geometry">
            <mxPoint x="18" y="14" as="targetPoint" />
            <mxPoint x="-2" y="14" as="sourcePoint" />
          </mxGeometry>
        </mxCell>
        <mxCell id="B2ohN6zCcqUy4PUC5bah-11" value="" style="group" vertex="1" connectable="0" parent="1">
          <mxGeometry x="1116" y="528.0015242270663" width="8" height="28" as="geometry" />
        </mxCell>
        <mxCell id="B2ohN6zCcqUy4PUC5bah-12" value="" style="ellipse;whiteSpace=wrap;html=1;aspect=fixed;" vertex="1" parent="B2ohN6zCcqUy4PUC5bah-11">
          <mxGeometry width="8" height="8" as="geometry" />
        </mxCell>
        <mxCell id="B2ohN6zCcqUy4PUC5bah-13" style="edgeStyle=orthogonalEdgeStyle;rounded=0;orthogonalLoop=1;jettySize=auto;html=1;endArrow=none;startFill=0;" edge="1" parent="B2ohN6zCcqUy4PUC5bah-11">
          <mxGeometry relative="1" as="geometry">
            <mxPoint x="4" y="28" as="targetPoint" />
            <mxPoint x="4" y="8" as="sourcePoint" />
          </mxGeometry>
        </mxCell>
        <mxCell id="B2ohN6zCcqUy4PUC5bah-14" value="&lt;font style=&quot;font-size: 8px;&quot;&gt;precio_venta&lt;/font&gt;" style="text;html=1;align=center;verticalAlign=middle;resizable=0;points=[];autosize=1;strokeColor=none;fillColor=none;rotation=-60;" vertex="1" parent="1">
          <mxGeometry x="1091" y="480.00152422706634" width="80" height="30" as="geometry" />
        </mxCell>
        <mxCell id="B2ohN6zCcqUy4PUC5bah-15" value="&lt;font style=&quot;font-size: 8px;&quot;&gt;stock_prestamo&lt;/font&gt;" style="text;html=1;align=center;verticalAlign=middle;resizable=0;points=[];autosize=1;strokeColor=none;fillColor=none;rotation=0;" vertex="1" parent="1">
          <mxGeometry x="858" y="583.0015242270663" width="90" height="30" as="geometry" />
        </mxCell>
      </root>
    </mxGraphModel>
  </diagram>
</mxfile>
